<svg width="31" height="31" viewBox="0 0 31 31" fill="none" xmlns="http://www.w3.org/2000/svg">
<path d="M6.7999 30.3761H0.50229V10.0957H6.7999V30.3761ZM3.6473 7.32932C1.6338 7.32932 0 5.6608 0 3.6473C0 2.67998 0.384268 1.75227 1.06827 1.06827C1.75227 0.384268 2.67998 0 3.6473 0C4.61462 0 5.54233 0.384268 6.22633 1.06827C6.91033 1.75227 7.2946 2.67998 7.2946 3.6473C7.2946 5.6608 5.6608 7.32932 3.6473 7.32932ZM30.3696 30.3761H24.0861V20.5039C24.0861 18.1508 24.0383 15.1338 20.812 15.1338C17.5378 15.1338 17.0356 17.6897 17.0356 20.3346V30.3761H10.7445V10.0957H16.7839V12.8621H16.8717C17.7125 11.2684 19.7662 9.58691 22.8298 9.58691C29.2034 9.58691 30.375 13.7842 30.375 19.2357V30.3761H30.3696Z" fill="#161719"/>
</svg>
