<svg width="31" height="24" viewBox="0 0 31 24" fill="none" xmlns="http://www.w3.org/2000/svg">
<path fill-rule="evenodd" clip-rule="evenodd" d="M3.60197 4.83799C3.63994 4.47082 3.49692 4.10862 3.21848 3.86218L0.383484 0.501598L0.383484 -3.10422e-10L9.1897 -7.43887e-09L15.9962 14.6808L21.9801 -1.77924e-08L30.375 -2.45879e-08L30.375 0.501598L27.9501 2.78804C27.7412 2.94486 27.6375 3.20251 27.6805 3.45766L27.6805 20.2581C27.6375 20.512 27.7412 20.7696 27.9501 20.9265L30.3181 23.2129L30.3181 23.7145L18.406 23.7145L18.406 23.2129L20.86 20.8704C21.1005 20.634 21.1005 20.5643 21.1005 20.2021L21.1005 6.62283L14.28 23.6597L13.3587 23.6597L5.41688 6.62283L5.41688 18.0413C5.35106 18.5205 5.51306 19.0047 5.85605 19.3507L9.04669 23.1569L9.04669 23.6597L-1.95134e-08 23.6597L-1.90987e-08 23.1569L3.19064 19.3507C3.53236 19.0035 3.68424 18.5168 3.60197 18.0413L3.60197 4.83799Z" fill="#161719"/>
</svg>
