<svg width="31" height="25" viewBox="0 0 31 25" fill="none" xmlns="http://www.w3.org/2000/svg">
<path d="M30.375 2.92903C29.258 3.424 28.058 3.75844 26.7965 3.90961C28.0981 3.13076 29.072 1.90494 29.5362 0.46088C28.3133 1.18727 26.9749 1.69856 25.5792 1.97254C24.6406 0.970383 23.3974 0.306137 22.0426 0.0829305C20.6878 -0.140276 19.2972 0.0900439 18.0867 0.738133C16.8763 1.38622 15.9136 2.41582 15.3482 3.66708C14.7829 4.91833 14.6464 6.32124 14.9601 7.65799C12.4821 7.53357 10.0581 6.88951 7.84515 5.76762C5.63223 4.64572 3.67994 3.07105 2.11499 1.14581C1.57989 2.06886 1.2722 3.13906 1.2722 4.27883C1.27161 5.30487 1.52428 6.31521 2.0078 7.22018C2.49133 8.12516 3.19075 8.8968 4.04402 9.46663C3.05446 9.43514 2.08672 9.16775 1.22137 8.68672V8.76698C1.22127 10.2061 1.71906 11.6008 2.63027 12.7147C3.54148 13.8285 4.80998 14.5928 6.22055 14.8778C5.30256 15.1263 4.34012 15.1629 3.40592 14.9849C3.80389 16.2231 4.57912 17.3059 5.62306 18.0817C6.66701 18.8574 7.92741 19.2873 9.22782 19.3111C7.0203 21.0441 4.29403 21.9841 1.48758 21.98C0.990446 21.9801 0.493733 21.9511 0 21.893C2.84871 23.7246 6.16482 24.6967 9.55155 24.6929C21.0161 24.6929 27.2835 15.1976 27.2835 6.96236C27.2835 6.69481 27.2768 6.42458 27.2647 6.15703C28.4838 5.27542 29.5361 4.18371 30.3723 2.93305L30.375 2.92903Z" fill="#161719"/>
</svg>
