<svg width="15" height="8" viewBox="0 0 15 8" fill="none" xmlns="http://www.w3.org/2000/svg">
<path d="M13.9271 8C13.6769 8.00052 13.4343 7.90762 13.2417 7.73742L7.50105 2.62289L1.74974 7.55476C1.64018 7.64959 1.51413 7.72041 1.37882 7.76314C1.24351 7.80588 1.10161 7.81968 0.961278 7.80377C0.820945 7.78785 0.684947 7.74254 0.561099 7.67041C0.437251 7.59829 0.327996 7.50079 0.239613 7.38351C0.150649 7.26674 0.0842126 7.13237 0.0441229 6.98814C0.00403318 6.84391 -0.00891942 6.69265 0.00600958 6.54306C0.0209386 6.39348 0.0634547 6.24851 0.131114 6.11649C0.198774 5.98448 0.290243 5.86802 0.400264 5.77381L6.82632 0.259708C7.01796 0.0917946 7.25834 0 7.50641 0C7.75448 0 7.99486 0.0917946 8.1865 0.259708L14.6126 5.96789C14.721 6.06373 14.8106 6.18143 14.8764 6.31425C14.9421 6.44708 14.9825 6.59242 14.9955 6.74195C15.0084 6.89148 14.9935 7.04225 14.9517 7.18565C14.9099 7.32904 14.842 7.46223 14.7518 7.57759C14.6521 7.70855 14.5265 7.81435 14.3839 7.88739C14.2413 7.96043 14.0853 7.99888 13.9271 8Z" fill="#1E1E1E"/>
</svg>
