<svg width="30" height="30" viewBox="0 0 30 30" fill="none" xmlns="http://www.w3.org/2000/svg">
<path d="M10.0237 2.06123L2.06123 10.0237C0.741444 11.3435 -7.37256e-07 13.1335 -6.55671e-07 15C-5.74085e-07 16.8665 0.741444 18.6565 2.06123 19.9763L10.0237 27.9388C11.3435 29.2586 13.1335 30 15 30C16.8665 30 18.6565 29.2586 19.9763 27.9388L27.9388 19.9763C29.2586 18.6565 30 16.8665 30 15C30 13.1335 29.2586 11.3435 27.9388 10.0237L19.9763 2.06123C18.6565 0.741443 16.8665 -7.37256e-07 15 -6.55671e-07C13.1335 -5.74085e-07 11.3435 0.741443 10.0237 2.06123ZM19.9413 15C19.9413 15.6489 19.8135 16.2914 19.5651 16.8909C19.3168 17.4904 18.9528 18.0352 18.494 18.494C18.0352 18.9528 17.4904 19.3168 16.8909 19.5651C16.2914 19.8134 15.6489 19.9413 15 19.9413C14.3511 19.9413 13.7086 19.8134 13.1091 19.5651C12.5096 19.3168 11.9648 18.9528 11.506 18.494C11.0472 18.0352 10.6832 17.4904 10.4349 16.8909C10.1866 16.2914 10.0587 15.6489 10.0587 15C10.0587 13.6895 10.5793 12.4327 11.506 11.506C12.4327 10.5793 13.6895 10.0587 15 10.0587C16.3105 10.0587 17.5673 10.5793 18.494 11.506C19.4207 12.4327 19.9413 13.6895 19.9413 15Z" fill="#161719"/>
</svg>
