<svg width="30" height="22" viewBox="0 0 30 22" fill="none" xmlns="http://www.w3.org/2000/svg">
<path d="M15.0956 0.703735L15.2625 0.703735C16.8038 0.709256 24.6131 0.764465 26.7188 1.32023C27.3553 1.48984 27.9353 1.82046 28.4009 2.27903C28.8665 2.7376 29.2013 3.30807 29.3719 3.93342C29.5613 4.63273 29.6944 5.55839 29.7844 6.51349L29.8031 6.70488L29.8444 7.18335L29.8594 7.37474C29.9813 9.05676 29.9963 10.632 29.9981 10.9762L29.9981 11.1142C29.9963 11.4712 29.9794 13.1532 29.8444 14.9052L29.8294 15.0984L29.8125 15.2898C29.7188 16.3424 29.58 17.3877 29.3719 18.1569C29.2018 18.7825 28.8672 19.3533 28.4015 19.8119C27.9359 20.2706 27.3556 20.601 26.7188 20.7701C24.5438 21.3443 16.2769 21.3848 15.1313 21.3866L14.865 21.3866C14.2856 21.3866 11.8894 21.3756 9.37688 21.2909L9.05813 21.2799L8.895 21.2725L8.57438 21.2596L8.25375 21.2468C6.1725 21.1566 4.19063 21.0112 3.2775 20.7683C2.64092 20.5993 2.06075 20.2692 1.59511 19.8109C1.12947 19.3526 0.794713 18.7822 0.624375 18.1569C0.41625 17.3895 0.2775 16.3424 0.18375 15.2898L0.16875 15.0965L0.15375 14.9052C0.0612142 13.6582 0.00993724 12.4086 -8.62235e-09 11.1584L-8.43566e-09 10.932C0.00374999 10.5363 0.01875 9.16901 0.12 7.65999L0.133125 7.47044L0.13875 7.37474L0.15375 7.18335L0.195 6.70488L0.21375 6.51349C0.30375 5.55839 0.436875 4.63089 0.62625 3.93342C0.796301 3.30782 1.13093 2.73708 1.59659 2.27843C2.06225 1.81978 2.64257 1.48934 3.27938 1.32023C4.1925 1.08099 6.17438 0.93377 8.25563 0.841756L8.57438 0.828874L8.89688 0.817833L9.05813 0.812312L9.37875 0.79943C11.1632 0.743071 12.9484 0.711783 14.7338 0.705576L15.0956 0.705576L15.0956 0.703735ZM12 6.61103L12 15.4775L19.7944 11.0461L12 6.61103Z" fill="#161719"/>
</svg>
