<svg width="25" height="30" viewBox="0 0 25 30" fill="none" xmlns="http://www.w3.org/2000/svg">
<path d="M5.50098 3.35449C5.48456 2.61822 5.75552 1.90604 6.25391 1.37207C6.68998 0.905053 7.26934 0.606724 7.8916 0.522461L8.16113 0.5H21.8389L22.1084 0.522461C22.7307 0.606725 23.31 0.905054 23.7461 1.37207C24.1823 1.83937 24.4445 2.4431 24.4922 3.08008L24.499 3.35449V24.5557C24.4979 24.679 24.4734 24.8004 24.4268 24.9131L24.3721 25.0234C24.3106 25.1304 24.2296 25.2236 24.1338 25.2979L24.0332 25.3662C23.8923 25.4485 23.7322 25.4912 23.5703 25.4912C23.4491 25.4912 23.3294 25.4666 23.2178 25.4199L23.1084 25.3662L23.1045 25.3643L15.0059 20.7275L14.75 20.5811L14.498 20.7334L6.88379 25.3555L6.87793 25.3594C6.74 25.4459 6.58224 25.4936 6.4209 25.499C6.30548 25.4974 6.1916 25.4746 6.08496 25.4307L5.97754 25.3779H5.97656C5.86913 25.3169 5.77504 25.234 5.69922 25.1357L5.62988 25.0332C5.56691 24.9246 5.52533 24.8041 5.50879 24.6797L5.50098 24.5547V3.35449Z" fill="#1E1E1E" stroke="white"/>
<path d="M0.500977 7.35449C0.484563 6.61822 0.755524 5.90604 1.25391 5.37207C1.68998 4.90505 2.26934 4.60672 2.8916 4.52246L3.16113 4.5H16.8389L17.1084 4.52246C17.7307 4.60672 18.31 4.90505 18.7461 5.37207C19.1823 5.83937 19.4445 6.4431 19.4922 7.08008L19.499 7.35449V28.5557C19.4979 28.679 19.4734 28.8004 19.4268 28.9131L19.3721 29.0234C19.3106 29.1304 19.2296 29.2236 19.1338 29.2979L19.0332 29.3662C18.8923 29.4485 18.7322 29.4912 18.5703 29.4912C18.4491 29.4912 18.3294 29.4666 18.2178 29.4199L18.1084 29.3662L18.1045 29.3643L10.0059 24.7275L9.75 24.5811L9.49805 24.7334L1.88379 29.3555L1.87793 29.3594C1.74 29.4459 1.58224 29.4936 1.4209 29.499C1.30548 29.4974 1.1916 29.4746 1.08496 29.4307L0.977539 29.3779H0.976562C0.869135 29.3169 0.775041 29.234 0.699219 29.1357L0.629883 29.0332C0.566913 28.9246 0.525331 28.8041 0.508789 28.6797L0.500977 28.5547V7.35449Z" fill="#1E1E1E" stroke="white"/>
</svg>
