<svg width="80" height="80" viewBox="0 0 80 80" fill="none" xmlns="http://www.w3.org/2000/svg">
<g filter="url(#filter0_d_1_20)">
<rect x="15" y="61" width="50" height="50" rx="10" transform="rotate(-90 15 61)" fill="#1E1E1E"/>
<path d="M50.0589 27.1245C48.2659 26.3159 46.3441 25.7183 44.3344 25.3785C44.3165 25.375 44.298 25.3772 44.2814 25.3848C44.2648 25.3924 44.251 25.4049 44.2418 25.4206C43.9958 25.8531 43.7215 26.4167 43.5294 26.862C41.3979 26.5435 39.2309 26.5435 37.0995 26.862C36.8854 26.3685 36.644 25.8873 36.3764 25.4206C36.3674 25.4047 36.3537 25.3919 36.3371 25.3839C36.3206 25.376 36.302 25.3732 36.2839 25.3761C34.2753 25.7159 32.3535 26.3136 30.5594 27.1233C30.544 27.1298 30.5309 27.1408 30.5219 27.155C26.8752 32.5161 25.8756 37.7449 26.3666 42.908C26.3679 42.9207 26.3719 42.9329 26.3781 42.944C26.3844 42.9551 26.3928 42.9648 26.4029 42.9725C28.5314 44.5222 30.9055 45.7027 33.4257 46.4646C33.4433 46.47 33.4621 46.47 33.4797 46.4645C33.4972 46.4591 33.5127 46.4485 33.5242 46.4341C34.0656 45.7076 34.5484 44.94 34.9609 44.1338C34.9855 44.0869 34.962 44.0307 34.9128 44.0119C34.1558 43.7268 33.4223 43.3828 32.7191 42.983C32.7065 42.9758 32.6958 42.9656 32.6881 42.9532C32.6804 42.9409 32.6759 42.9268 32.675 42.9123C32.6741 42.8978 32.6767 42.8833 32.6828 42.87C32.6889 42.8568 32.6981 42.8453 32.7098 42.8365C32.8574 42.7276 33.0051 42.6139 33.1457 42.5002C33.1583 42.49 33.1736 42.4835 33.1897 42.4814C33.2059 42.4794 33.2223 42.4818 33.2371 42.4885C37.8389 44.5556 42.8227 44.5556 47.3707 42.4885C47.3855 42.4814 47.4021 42.4786 47.4185 42.4805C47.4348 42.4824 47.4503 42.4888 47.4632 42.4991C47.6039 42.6139 47.7503 42.7276 47.8992 42.8365C47.9109 42.8451 47.9203 42.8565 47.9266 42.8696C47.9328 42.8827 47.9357 42.8972 47.935 42.9117C47.9343 42.9262 47.93 42.9403 47.9226 42.9528C47.9151 42.9652 47.9046 42.9756 47.8921 42.983C47.1914 43.3861 46.4625 43.7271 45.6973 44.0107C45.6855 44.015 45.6748 44.0217 45.6659 44.0305C45.6569 44.0392 45.6499 44.0497 45.6454 44.0614C45.6408 44.073 45.6388 44.0855 45.6395 44.098C45.6402 44.1105 45.6435 44.1227 45.6492 44.1338C46.0711 44.9388 46.5539 45.7052 47.0847 46.4329C47.0958 46.4479 47.1111 46.459 47.1288 46.4649C47.1464 46.4708 47.1654 46.4711 47.1832 46.4657C49.7077 45.706 52.0857 44.5249 54.2166 42.9725C54.2269 42.9652 54.2357 42.9558 54.2421 42.9449C54.2486 42.934 54.2527 42.9218 54.2541 42.9092C54.84 36.9398 53.272 31.7533 50.0952 27.1573C50.0874 27.1424 50.0745 27.1307 50.0589 27.1245ZM35.6487 39.764C34.2636 39.764 33.1211 38.5113 33.1211 36.975C33.1211 35.4375 34.2413 34.186 35.6487 34.186C37.0667 34.186 38.1987 35.4481 38.1764 36.975C38.1764 38.5125 37.0561 39.764 35.6487 39.764ZM44.9942 39.764C43.6079 39.764 42.4665 38.5113 42.4665 36.975C42.4665 35.4375 43.5856 34.186 44.9942 34.186C46.4121 34.186 47.5441 35.4481 47.5218 36.975C47.5218 38.5125 46.4133 39.764 44.9942 39.764Z" fill="white"/>
</g>
<defs>
<filter id="filter0_d_1_20" x="0" y="0" width="80" height="80" filterUnits="userSpaceOnUse" color-interpolation-filters="sRGB">
<feFlood flood-opacity="0" result="BackgroundImageFix"/>
<feColorMatrix in="SourceAlpha" type="matrix" values="0 0 0 0 0 0 0 0 0 0 0 0 0 0 0 0 0 0 127 0" result="hardAlpha"/>
<feOffset dy="4"/>
<feGaussianBlur stdDeviation="7.5"/>
<feComposite in2="hardAlpha" operator="out"/>
<feColorMatrix type="matrix" values="0 0 0 0 0.0862745 0 0 0 0 0.0901961 0 0 0 0 0.0980392 0 0 0 0.25 0"/>
<feBlend mode="normal" in2="BackgroundImageFix" result="effect1_dropShadow_1_20"/>
<feBlend mode="normal" in="SourceGraphic" in2="effect1_dropShadow_1_20" result="shape"/>
</filter>
</defs>
</svg>
