<svg width="80" height="80" viewBox="0 0 80 80" fill="none" xmlns="http://www.w3.org/2000/svg">
<g filter="url(#filter0_d_1_187)">
<rect x="15" y="12" width="50" height="50" rx="10" fill="#1E1E1E" />
<path transform="translate(10, 10)" fill-rule="evenodd" clip-rule="evenodd" d="M24.2282 14.084C25.7211 14.0153 26.1971 14 30 14C33.8029 14 34.2789 14.0165 35.7705 14.084C37.2622 14.1515 38.2804 14.3895 39.1713 14.7344C40.1042 15.0869 40.9505 15.638 41.6505 16.3507C42.3633 17.0495 42.9131 17.8945 43.2644 18.8287C43.6105 19.7196 43.8473 20.7378 43.916 22.2269C43.9847 23.7224 44 24.1984 44 28C44 31.8029 43.9835 32.2789 43.916 33.7718C43.8485 35.2609 43.6105 36.2791 43.2644 37.17C42.9131 38.1043 42.3624 38.9508 41.6505 39.6505C40.9505 40.3633 40.1042 40.9131 39.1713 41.2644C38.2804 41.6105 37.2622 41.8473 35.7731 41.916C34.2789 41.9847 33.8029 42 30 42C26.1971 42 25.7211 41.9835 24.2282 41.916C22.7391 41.8485 21.7209 41.6105 20.83 41.2644C19.8957 40.913 19.0492 40.3623 18.3495 39.6505C17.6372 38.9514 17.086 38.1053 16.7344 37.1713C16.3895 36.2804 16.1527 35.2622 16.084 33.7731C16.0153 32.2776 16 31.8016 16 28C16 24.1971 16.0165 23.7211 16.084 22.2295C16.1515 20.7378 16.3895 19.7196 16.7344 18.8287C17.0866 17.8946 17.6382 17.0486 18.3507 16.3495C19.0495 15.6374 19.8951 15.0862 20.8287 14.7344C21.7196 14.3895 22.7378 14.1527 24.2269 14.084H24.2282ZM35.6573 16.604C34.1809 16.5365 33.738 16.5225 30 16.5225C26.262 16.5225 25.8191 16.5365 24.3427 16.604C22.9771 16.6664 22.2364 16.8942 21.7425 17.0864C21.0896 17.3409 20.6225 17.6425 20.1325 18.1325C19.6681 18.5844 19.3106 19.1345 19.0864 19.7425C18.8942 20.2364 18.6664 20.9771 18.604 22.3427C18.5365 23.8191 18.5225 24.262 18.5225 28C18.5225 31.738 18.5365 32.1809 18.604 33.6573C18.6664 35.0229 18.8942 35.7636 19.0864 36.2575C19.3104 36.8645 19.668 37.4156 20.1325 37.8675C20.5844 38.332 21.1355 38.6896 21.7425 38.9136C22.2364 39.1058 22.9771 39.3336 24.3427 39.396C25.8191 39.4635 26.2607 39.4775 30 39.4775C33.7393 39.4775 34.1809 39.4635 35.6573 39.396C37.0229 39.3336 37.7636 39.1058 38.2575 38.9136C38.9104 38.6591 39.3775 38.3575 39.8675 37.8675C40.332 37.4156 40.6896 36.8645 40.9136 36.2575C41.1058 35.7636 41.3336 35.0229 41.396 33.6573C41.4635 32.1809 41.4775 31.738 41.4775 28C41.4775 24.262 41.4635 23.8191 41.396 22.3427C41.3336 20.9771 41.1058 20.2364 40.9136 19.7425C40.6591 19.0896 40.3575 18.6225 39.8675 18.1325C39.4155 17.6681 38.8654 17.3106 38.2575 17.0864C37.7636 16.8942 37.0229 16.6664 35.6573 16.604ZM28.2118 32.3158C29.2105 32.7315 30.3225 32.7876 31.3579 32.4746C32.3933 32.1615 33.288 31.4986 33.889 30.5992C34.49 29.6998 34.7601 28.6197 34.6532 27.5432C34.5462 26.4668 34.0689 25.4609 33.3027 24.6973C32.8143 24.2092 32.2237 23.8354 31.5735 23.6029C30.9233 23.3704 30.2296 23.285 29.5424 23.3528C28.8553 23.4206 28.1916 23.6399 27.5994 23.9949C27.0071 24.3499 26.5009 24.8319 26.1173 25.406C25.7336 25.9801 25.4821 26.6322 25.3807 27.3152C25.2793 27.9983 25.3306 28.6953 25.5309 29.3561C25.7312 30.0169 26.0755 30.6251 26.5391 31.1369C27.0027 31.6487 27.574 32.0513 28.2118 32.3158ZM24.9116 22.9116C25.5798 22.2434 26.3731 21.7134 27.2462 21.3517C28.1193 20.9901 29.055 20.804 30 20.804C30.945 20.804 31.8807 20.9901 32.7538 21.3517C33.6269 21.7134 34.4202 22.2434 35.0884 22.9116C35.7566 23.5798 36.2866 24.3731 36.6483 25.2462C37.0099 26.1193 37.196 27.055 37.196 28C37.196 28.945 37.0099 29.8807 36.6483 30.7538C36.2866 31.6269 35.7566 32.4202 35.0884 33.0884C33.7388 34.4379 31.9085 35.196 30 35.196C28.0915 35.196 26.2612 34.4379 24.9116 33.0884C23.5621 31.7388 22.804 29.9085 22.804 28C22.804 26.0915 23.5621 24.2612 24.9116 22.9116ZM38.792 21.8756C38.9576 21.7194 39.0902 21.5316 39.1818 21.3232C39.2735 21.1149 39.3225 20.8903 39.3258 20.6626C39.3291 20.435 39.2867 20.2091 39.2012 19.9981C39.1156 19.7872 38.9886 19.5956 38.8276 19.4346C38.6666 19.2736 38.475 19.1466 38.2641 19.061C38.0531 18.9754 37.8272 18.9331 37.5995 18.9364C37.3719 18.9397 37.1473 18.9887 36.9389 19.0803C36.7306 19.172 36.5427 19.3046 36.3865 19.4702C36.0828 19.7922 35.9164 20.22 35.9229 20.6626C35.9293 21.1053 36.1081 21.528 36.4211 21.8411C36.7342 22.1541 37.1569 22.3328 37.5995 22.3393C38.0422 22.3457 38.47 22.1794 38.792 21.8756Z" fill="white"/>
</g>
<defs>
<filter id="filter0_d_1_187" x="0" y="0" width="80" height="80" filterUnits="userSpaceOnUse" color-interpolation-filters="sRGB">
<feFlood flood-opacity="0" result="BackgroundImageFix"/>
<feColorMatrix in="SourceAlpha" type="matrix" values="0 0 0 0 0 0 0 0 0 0 0 0 0 0 0 0 0 0 127 0" result="hardAlpha"/>
<feOffset dy="2"/>
<feGaussianBlur stdDeviation="2.5"/>
<feComposite in2="hardAlpha" operator="out"/>
<feColorMatrix type="matrix" values="0 0 0 0 0 0 0 0 0 0 0 0 0 0 0 0 0 0 0.2 0"/>
<feBlend mode="normal" in2="BackgroundImageFix" result="effect1_dropShadow_1_187"/>
<feBlend mode="normal" in="SourceGraphic" in2="effect1_dropShadow_1_187" result="shape"/>
</filter>
</defs>
</svg>
