<svg width="80" height="80" viewBox="0 0 80 80" fill="none" xmlns="http://www.w3.org/2000/svg">
<g filter="url(#filter0_d_1_16)">
<rect x="15" y="61" width="50" height="50" rx="10" transform="rotate(-90 15 61)" fill="#1E1E1E"/>
<path d="M53.75 27.4621C52.7157 27.9204 51.6046 28.23 50.4366 28.37C51.6418 27.6488 52.5435 26.5138 52.9734 25.1767C51.841 25.8493 50.6018 26.3227 49.3094 26.5764C48.4403 25.6485 47.2892 25.0335 46.0348 24.8268C44.7804 24.6201 43.4928 24.8334 42.372 25.4335C41.2512 26.0335 40.3598 26.9869 39.8363 28.1454C39.3128 29.304 39.1865 30.603 39.4769 31.8407C37.1825 31.7255 34.938 31.1292 32.889 30.0904C30.84 29.0516 29.0324 27.5936 27.5833 25.8109C27.0879 26.6656 26.803 27.6565 26.803 28.7119C26.8024 29.6619 27.0364 30.5974 27.4841 31.4354C27.9318 32.2733 28.5794 32.9878 29.3695 33.5154C28.4532 33.4862 27.5572 33.2387 26.7559 32.7933V32.8676C26.7558 34.2001 27.2167 35.4915 28.0604 36.5229C28.9041 37.5542 30.0787 38.2619 31.3848 38.5258C30.5348 38.7558 29.6436 38.7897 28.7786 38.6249C29.1471 39.7714 29.8649 40.774 30.8315 41.4923C31.7982 42.2106 32.9652 42.6086 34.1693 42.6307C32.1253 44.2353 29.601 45.1056 27.0024 45.1018C26.5421 45.1019 26.0822 45.0751 25.625 45.0213C28.2627 46.7172 31.3332 47.6173 34.469 47.6138C45.0843 47.6138 50.8875 38.8218 50.8875 31.1966C50.8875 30.9489 50.8813 30.6987 50.8701 30.451C51.9989 29.6346 52.9732 28.6238 53.7475 27.4658L53.75 27.4621Z" fill="white"/>
</g>
<defs>
<filter id="filter0_d_1_16" x="0" y="0" width="80" height="80" filterUnits="userSpaceOnUse" color-interpolation-filters="sRGB">
<feFlood flood-opacity="0" result="BackgroundImageFix"/>
<feColorMatrix in="SourceAlpha" type="matrix" values="0 0 0 0 0 0 0 0 0 0 0 0 0 0 0 0 0 0 127 0" result="hardAlpha"/>
<feOffset dy="4"/>
<feGaussianBlur stdDeviation="7.5"/>
<feComposite in2="hardAlpha" operator="out"/>
<feColorMatrix type="matrix" values="0 0 0 0 0.0862745 0 0 0 0 0.0901961 0 0 0 0 0.0980392 0 0 0 0.25 0"/>
<feBlend mode="normal" in2="BackgroundImageFix" result="effect1_dropShadow_1_16"/>
<feBlend mode="normal" in="SourceGraphic" in2="effect1_dropShadow_1_16" result="shape"/>
</filter>
</defs>
</svg>
