<svg width="80" height="80" viewBox="0 0 80 80" fill="none" xmlns="http://www.w3.org/2000/svg">
<g filter="url(#filter0_d_1_176)">
<rect  x="17" y="63" width="50" height="50" rx="10" transform="rotate(-90 15 63)" fill="#1E1E1E"/>
<path  transform='translate(0, 0)' d="M52.4997 30.5333H43.7498V28H52.4997V30.5333ZM54.6572 43.2C54.1047 44.8429 52.121 47 48.281 47C44.4385 47 41.3261 44.8099 41.3261 39.8117C41.3261 34.859 44.2323 32.313 48.1585 32.313C52.011 32.313 54.3634 34.5702 54.8772 37.9193C54.9747 38.5602 55.0134 39.4241 54.9959 40.6299H44.9623C45.1248 44.6972 49.316 44.8251 50.6972 43.2H54.6572ZM45.0498 38.1333H51.256C51.1247 36.1738 49.836 35.3226 48.1597 35.3226C46.3273 35.3226 45.3135 36.2954 45.0498 38.1333ZM33.0824 46.9848H25V28.0266H33.6912C40.5361 28.1292 40.6661 34.9223 37.0911 36.7742C41.4173 38.3702 41.5623 46.9848 33.0824 46.9848ZM28.75 35.6H33.2299C36.3649 35.6 36.8624 31.8 32.8399 31.8H28.75V35.6ZM32.9887 39.4H28.75V43.2203H32.9262C36.7449 43.2203 36.5111 39.4 32.9887 39.4Z" fill="white"/>
</g>
<defs>
<filter id="filter0_d_1_176" x="0" y="0" width="80" height="80" filterUnits="userSpaceOnUse" color-interpolation-filters="sRGB">
<feFlood flood-opacity="0" result="BackgroundImageFix"/>
<feColorMatrix in="SourceAlpha" type="matrix" values="0 0 0 0 0 0 0 0 0 0 0 0 0 0 0 0 0 0 127 0" result="hardAlpha"/>
<feOffset dy="2"/>
<feGaussianBlur stdDeviation="7.5"/>
<feComposite in2="hardAlpha" operator="out"/>
<feColorMatrix type="matrix" values="0 0 0 0 0 0 0 0 0 0 0 0 0 0 0 0 0 0 0.1 0"/>
<feBlend mode="normal" in2="BackgroundImageFix" result="effect1_dropShadow_1_176"/>
<feBlend mode="normal" in="SourceGraphic" in2="effect1_dropShadow_1_176" result="shape"/>
</filter>
</defs>
</svg>
