<svg width="80" height="80" viewBox="0 0 80 80" fill="none" xmlns="http://www.w3.org/2000/svg">
<g filter="url(#filter0_d_1_12)">
<rect x="15" y="61" width="50" height="50" rx="10" transform="rotate(-90 15 61)" fill="#1E1E1E"/>
<path d="M40.0885 25.8147H40.243C41.6701 25.8199 48.901 25.872 50.8507 26.3963C51.4401 26.5563 51.9771 26.8682 52.4082 27.3008C52.8393 27.7334 53.1493 28.2716 53.3073 28.8616C53.4826 29.5213 53.6059 30.3946 53.6892 31.2956L53.7066 31.4762L53.7448 31.9275L53.7587 32.1081C53.8715 33.6949 53.8854 35.181 53.8871 35.5057V35.6359C53.8854 35.9727 53.8698 37.5595 53.7448 39.2123L53.7309 39.3946L53.7152 39.5751C53.6284 40.5682 53.5 41.5543 53.3073 42.28C53.1498 42.8702 52.84 43.4086 52.4088 43.8413C51.9776 44.274 51.4403 44.5857 50.8507 44.7453C48.8368 45.2869 41.1823 45.3251 40.1215 45.3269H39.875C39.3385 45.3269 37.1198 45.3164 34.7934 45.2366L34.4982 45.2262L34.3472 45.2192L34.0503 45.2071L33.7534 45.1949C31.8264 45.1098 29.9913 44.9727 29.1458 44.7435C28.5564 44.5841 28.0192 44.2727 27.588 43.8403C27.1569 43.4079 26.8469 42.8699 26.6892 42.28C26.4965 41.556 26.368 40.5682 26.2812 39.5751L26.2673 39.3928L26.2534 39.2123C26.1678 38.0359 26.1203 36.857 26.1111 35.6775L26.1111 35.464C26.1146 35.0907 26.1284 33.8008 26.2222 32.3772L26.2343 32.1984L26.2396 32.1081L26.2534 31.9275L26.2916 31.4762L26.309 31.2956C26.3923 30.3946 26.5156 29.5196 26.6909 28.8616C26.8484 28.2714 27.1582 27.7329 27.5894 27.3003C28.0206 26.8676 28.5579 26.5558 29.1475 26.3963C29.993 26.1706 31.8281 26.0317 33.7552 25.9449L34.0503 25.9328L34.3489 25.9223L34.4982 25.9171L34.7951 25.905C36.4474 25.8518 38.1003 25.8223 39.7534 25.8164L40.0885 25.8164V25.8147ZM37.2222 31.3876L37.2222 39.7522L44.4392 35.5716L37.2222 31.3876Z" fill="white"/>
</g>
<defs>
<filter id="filter0_d_1_12" x="0" y="0" width="80" height="80" filterUnits="userSpaceOnUse" color-interpolation-filters="sRGB">
<feFlood flood-opacity="0" result="BackgroundImageFix"/>
<feColorMatrix in="SourceAlpha" type="matrix" values="0 0 0 0 0 0 0 0 0 0 0 0 0 0 0 0 0 0 127 0" result="hardAlpha"/>
<feOffset dy="4"/>
<feGaussianBlur stdDeviation="7.5"/>
<feComposite in2="hardAlpha" operator="out"/>
<feColorMatrix type="matrix" values="0 0 0 0 0.0862745 0 0 0 0 0.0901961 0 0 0 0 0.0980392 0 0 0 0.25 0"/>
<feBlend mode="normal" in2="BackgroundImageFix" result="effect1_dropShadow_1_12"/>
<feBlend mode="normal" in="SourceGraphic" in2="effect1_dropShadow_1_12" result="shape"/>
</filter>
</defs>
</svg>
